# Blender v2.79 (sub 0) OBJ File: 'altar.blend'
# www.blender.org
mtllib altar.mtl
o Cube_Cube.004
v -0.007427 -0.007427 1.007427
v 0.246287 0.458092 0.753713
v 0.246287 0.458092 0.246287
v -0.007427 -0.007427 -0.007427
v 0.753713 0.458092 0.246287
v 1.007427 -0.007427 -0.007427
v 0.753713 0.458092 0.753713
v 1.007427 -0.007427 1.007427
vn -0.8781 0.4786 0.0000
vn 0.0000 0.4786 -0.8781
vn 0.8781 0.4786 0.0000
vn 0.0000 0.4786 0.8781
vn 0.0000 -1.0000 -0.0000
vn 0.0000 1.0000 0.0000
usemtl None
s 1
f 1//1 2//1 3//1 4//1
f 4//2 3//2 5//2 6//2
f 6//3 5//3 7//3 8//3
f 8//4 7//4 2//4 1//4
f 4//5 6//5 8//5 1//5
f 5//6 3//6 2//6 7//6
